<svg width="16" height="13" viewBox="0 0 16 13" fill="none" xmlns="http://www.w3.org/2000/svg">
<path d="M3.70872 12.788C3.95314 13.0318 4.34892 13.0313 4.59272 12.7869C4.83652 12.5425 4.83601 12.1467 4.59159 11.9029L4.15015 12.3455L3.70872 12.788ZM0.625 8.82935V8.20426C0.37203 8.20426 0.143999 8.35673 0.0473417 8.59051C-0.0493157 8.82428 0.00445835 9.09327 0.183565 9.27192L0.625 8.82935ZM14.7256 9.45443C15.0708 9.45443 15.3507 9.17457 15.3507 8.82935C15.3507 8.48412 15.0708 8.20426 14.7256 8.20426V8.82935V9.45443ZM11.6419 0.18247C11.3975 -0.061328 11.0017 -0.0608199 10.7579 0.183605C10.5141 0.42803 10.5146 0.823812 10.759 1.06761L11.2005 0.62504L11.6419 0.18247ZM14.7256 4.14115V4.76624C14.9786 4.76624 15.2066 4.61377 15.3033 4.37999C15.3999 4.14622 15.3462 3.87723 15.167 3.69858L14.7256 4.14115ZM0.625 3.51607C0.279774 3.51607 -8.67844e-05 3.79593 -8.67844e-05 4.14115C-8.67844e-05 4.48638 0.279774 4.76624 0.625 4.76624L0.625 4.14115V3.51607ZM4.15015 12.3455L4.59159 11.9029L1.06644 8.38678L0.625 8.82935L0.183565 9.27192L3.70872 12.788L4.15015 12.3455ZM0.625 8.82935V9.45443H14.7256V8.82935V8.20426H0.625V8.82935ZM11.2005 0.62504L10.759 1.06761L14.2842 4.58372L14.7256 4.14115L15.167 3.69858L11.6419 0.18247L11.2005 0.62504ZM14.7256 4.14115V3.51607H0.625V4.14115L0.625 4.76624L14.7256 4.76624V4.14115Z" fill="#C7C7C7"/>
</svg>
