<svg width="35" height="35" viewBox="0 0 35 35" fill="none" xmlns="http://www.w3.org/2000/svg">
<path fill-rule="evenodd" clip-rule="evenodd" d="M13.4464 5.77882H21.4226C21.5054 5.77882 21.5878 5.78412 21.6696 5.79471C24.9163 6.02176 27.4374 8.71616 27.4484 11.9708V21.2587C27.4365 24.6857 24.6516 27.4557 21.2246 27.4493H13.4464C10.0189 27.4557 7.23381 24.6848 7.22266 21.2573V11.9708C7.23381 8.54327 10.0189 5.77242 13.4464 5.77882Z" stroke="#94C9CD" stroke-width="1.61268" stroke-linecap="round" stroke-linejoin="round"/>
<path d="M27.4482 12.7768C27.8936 12.7768 28.2546 12.4158 28.2546 11.9705C28.2546 11.5251 27.8936 11.1641 27.4482 11.1641V11.9705V12.7768ZM21.6695 11.9705H20.8631C20.8631 12.4158 21.2241 12.7768 21.6695 12.7768V11.9705ZM22.4758 5.7944C22.4758 5.34907 22.1148 4.98805 21.6695 4.98805C21.2241 4.98805 20.8631 5.34907 20.8631 5.7944H21.6695H22.4758ZM15.8907 22.4761C16.336 22.4761 16.697 22.1151 16.697 21.6698C16.697 21.2244 16.336 20.8634 15.8907 20.8634V21.6698V22.4761ZM11.5566 20.8634C11.1113 20.8634 10.7503 21.2244 10.7503 21.6698C10.7503 22.1151 11.1113 22.4761 11.5566 22.4761V21.6698V20.8634ZM21.6695 18.142C22.1148 18.142 22.4758 17.781 22.4758 17.3357C22.4758 16.8904 22.1148 16.5293 21.6695 16.5293V17.3357V18.142ZM11.5566 16.5293C11.1113 16.5293 10.7503 16.8904 10.7503 17.3357C10.7503 17.781 11.1113 18.142 11.5566 18.142V17.3357V16.5293ZM27.4482 11.9705V11.1641H21.6695V11.9705V12.7768H27.4482V11.9705ZM21.6695 11.9705H22.4758V5.7944H21.6695H20.8631V11.9705H21.6695ZM15.8907 21.6698V20.8634H11.5566V21.6698V22.4761H15.8907V21.6698ZM21.6695 17.3357V16.5293H11.5566V17.3357V18.142H21.6695V17.3357Z" fill="#94C9CD"/>
</svg>
