<svg width="28" height="28" viewBox="0 0 28 28" fill="none" xmlns="http://www.w3.org/2000/svg">
<path d="M15.2725 14.6572L12.7737 20.8266C12.7557 20.8707 12.7163 20.903 12.6695 20.9116L11.2081 21.1825C11.1069 21.2012 11.021 21.1076 11.048 21.0083L12.9552 14.0086C12.9756 13.9344 13.0524 13.8903 13.1267 13.9106L15.1797 14.47C15.2604 14.4919 15.3037 14.5797 15.2725 14.6572Z" fill="#B5CFD1" stroke="#B5CFD1" stroke-width="0.155112"/>
<path d="M15.2832 12.5484L12.7844 6.37892C12.7665 6.33488 12.7271 6.3026 12.6803 6.29393L11.2188 6.02309C11.1176 6.00434 11.0317 6.09798 11.0588 6.19727L12.966 13.197C12.9864 13.2712 13.0631 13.3152 13.1374 13.295L15.1905 12.7356C15.2711 12.7136 15.3144 12.6259 15.2832 12.5484Z" fill="#B5CFD1" stroke="#B5CFD1" stroke-width="0.155112"/>
<path d="M8.79395 13.4119C8.79723 13.4245 8.79718 13.4383 8.79395 13.4509L7.88769 16.9812C7.88125 17.0059 7.86288 17.0262 7.83887 17.0349L6.18066 17.6277C6.12408 17.6475 6.06733 17.5977 6.0791 17.5388L6.89062 13.4773C6.89664 13.447 6.89582 13.4158 6.88965 13.3855L6.0791 9.40894C6.0672 9.35061 6.1222 9.30154 6.17871 9.32007L7.83789 9.86792C7.86276 9.87625 7.88208 9.89721 7.88867 9.92261L8.79395 13.4119Z" fill="#B5CFD1" stroke="#B5CFD1" stroke-width="0.155112"/>
<path d="M22.2627 13.4373C22.2627 14.1814 21.6591 14.7847 20.915 14.7849L8.16504 14.7849L8.16504 12.0896L20.915 12.0896C21.659 12.0898 22.2625 12.6933 22.2627 13.4373Z" fill="#B5CFD1" stroke="#B5CFD1" stroke-width="0.155112"/>
</svg>
