<svg width="28" height="28" viewBox="0 0 28 28" fill="none" xmlns="http://www.w3.org/2000/svg">
<path fill-rule="evenodd" clip-rule="evenodd" d="M16.9517 7.89478C16.9517 9.53558 15.6215 10.8657 13.9807 10.8657C12.3399 10.8657 11.0098 9.53558 11.0098 7.89478C11.0098 6.25397 12.3399 4.92383 13.9807 4.92383C15.6215 4.92383 16.9517 6.25397 16.9517 7.89478Z" stroke="#9CC1C4" stroke-width="1.74296" stroke-linecap="round" stroke-linejoin="round"/>
<path fill-rule="evenodd" clip-rule="evenodd" d="M19.9229 18.4027C19.9229 20.6543 17.2621 22.4894 13.981 22.4894C10.6998 22.4894 8.03906 20.6593 8.03906 18.4027C8.03906 16.146 10.6998 14.3171 13.981 14.3171C17.2621 14.3171 19.9229 16.146 19.9229 18.4027Z" stroke="#9CC1C4" stroke-width="1.74296" stroke-linecap="round" stroke-linejoin="round"/>
<path fill-rule="evenodd" clip-rule="evenodd" d="M23.2387 10.6193C23.2514 11.343 22.8253 12.0025 22.1603 12.2883C21.4953 12.5741 20.7235 12.4294 20.2072 11.9221C19.6909 11.4149 19.5325 10.6458 19.8065 9.97582C20.0805 9.30587 20.7324 8.8681 21.4562 8.86799C22.4319 8.85966 23.2298 9.64356 23.2387 10.6193V10.6193Z" stroke="#9CC1C4" stroke-width="1.74296" stroke-linecap="round" stroke-linejoin="round"/>
<path fill-rule="evenodd" clip-rule="evenodd" d="M4.72489 10.6193C4.71219 11.343 5.13835 12.0025 5.80335 12.2883C6.46834 12.5741 7.24013 12.4294 7.75644 11.9221C8.27276 11.4149 8.43109 10.6458 8.15711 9.97582C7.88314 9.30587 7.23126 8.8681 6.50745 8.86799C5.53173 8.85966 4.73383 9.64356 4.72489 10.6193Z" stroke="#9CC1C4" stroke-width="1.74296" stroke-linecap="round" stroke-linejoin="round"/>
<path d="M22.3778 20.4541C21.8984 20.4112 21.475 20.765 21.4321 21.2444C21.3891 21.7238 21.743 22.1472 22.2223 22.1901L22.3001 21.3221L22.3778 20.4541ZM25.8652 18.4024L26.7315 18.4974C26.7384 18.4342 26.7384 18.3704 26.7315 18.3072L25.8652 18.4024ZM22.2223 14.616C21.7429 14.659 21.3891 15.0824 21.4321 15.5618C21.475 16.0412 21.8984 16.395 22.3778 16.352L22.3001 15.484L22.2223 14.616ZM5.74052 22.1901C6.2199 22.1472 6.57372 21.7238 6.5308 21.2444C6.48787 20.765 6.06446 20.4112 5.58507 20.4541L5.66279 21.3221L5.74052 22.1901ZM2.09766 18.4024L1.2314 18.3072C1.22445 18.3704 1.22444 18.4341 1.23136 18.4973L2.09766 18.4024ZM5.58503 16.352C6.06442 16.395 6.48785 16.0412 6.5308 15.5618C6.57374 15.0824 6.21994 14.659 5.74055 14.616L5.66279 15.484L5.58503 16.352ZM22.3001 21.3221L22.2223 22.1901C24.4801 22.3923 26.4846 20.7507 26.7315 18.4974L25.8652 18.4024L24.9989 18.3075C24.8554 19.6174 23.6902 20.5716 22.3778 20.4541L22.3001 21.3221ZM25.8652 18.4024L26.7315 18.3072C26.4838 16.0545 24.4796 14.4138 22.2223 14.616L22.3001 15.484L22.3778 16.352C23.6899 16.2345 24.855 17.1882 24.9989 18.4977L25.8652 18.4024ZM5.66279 21.3221L5.58507 20.4541C4.27264 20.5716 3.10745 19.6174 2.96395 18.3075L2.09766 18.4024L1.23136 18.4973C1.47822 20.7507 3.48272 22.3923 5.74052 22.1901L5.66279 21.3221ZM2.09766 18.4024L2.96392 18.4977C3.10787 17.1882 4.27292 16.2345 5.58503 16.352L5.66279 15.484L5.74055 14.616C3.4833 14.4138 1.47905 16.0545 1.2314 18.3072L2.09766 18.4024Z" fill="#9CC1C4"/>
</svg>
