<svg width="1024" height="1024" viewBox="0 0 1024 1024" fill="none" xmlns="http://www.w3.org/2000/svg">
<path d="M272.185 391.817C272.185 300.7 295.077 232.023 340.862 185.784C387.1 139.093 454.191 115.747 542.135 115.747C584.293 115.747 621.918 121.413 655.011 132.746C688.556 143.626 720.742 160.625 751.567 183.745V387.057C725.275 387.057 700.116 386.604 676.09 385.697C652.064 384.337 628.038 382.524 604.012 380.257C580.44 377.991 556.188 374.818 531.255 370.738C506.323 366.658 479.577 361.898 451.018 356.458V376.857C504.509 389.097 555.508 397.257 604.012 401.337C652.971 405.416 702.156 407.456 751.567 407.456V586.29C733.434 602.156 715.528 615.302 697.849 625.728C680.17 636.155 661.81 644.541 642.771 650.888C623.732 657.234 603.786 661.54 582.933 663.807C562.081 666.527 539.415 667.887 514.936 667.887C478.217 667.887 444.898 661.994 414.979 650.208C385.06 638.875 359.448 621.649 338.142 598.529C317.29 575.41 300.97 546.625 289.184 512.173C277.851 477.72 272.185 437.602 272.185 391.817Z" fill="#013236"/>
<rect x="437.743" y="349.338" width="315.763" height="84.9969" fill="#013236"/>
<path d="M420.155 350.818C459.122 344.475 584.368 362 753.932 369.096L754.038 468.965C466.336 461.588 374.125 358.311 420.155 350.818Z" fill="white" stroke="white" stroke-width="9.67469" stroke-linecap="round"/>
<path d="M605.738 295.985C578.649 300.86 533.178 334.572 513.828 350.819L588.807 356.912C605.738 334.572 632.827 291.111 605.738 295.985Z" fill="white" stroke="white" stroke-width="9.67469" stroke-linecap="round"/>
<ellipse cx="39.4366" cy="18.5863" rx="39.4366" ry="18.5863" transform="matrix(0.870771 0.491688 -0.335341 0.942097 497.271 435.737)" fill="white"/>
<path d="M754.038 476.342C422.075 461.588 391.508 352.51 407.322 361.999C425.763 373.064 484.779 421.015 754.038 439.457V476.342Z" fill="#DBDBDB"/>
<path d="M634.95 380.082L623.375 378.414C619.786 377.897 616.353 380.065 615.278 383.528L609.135 403.309C607.765 407.72 610.74 412.291 615.328 412.824L634.506 415.056C639.101 415.59 643.048 411.813 642.717 407.2L641.256 386.855C641.007 383.396 638.382 380.577 634.95 380.082Z" fill="#013236"/>
<path d="M678.22 383.019L666.6 381.709C662.996 381.303 659.632 383.575 658.664 387.07L653.134 407.031C651.901 411.482 655.015 415.959 659.617 416.351L678.856 417.989C683.465 418.382 687.294 414.485 686.82 409.884L684.732 389.594C684.377 386.144 681.667 383.407 678.22 383.019Z" fill="#013236"/>
<path d="M721.189 385.748L709.525 384.893C705.909 384.628 702.636 387.03 701.805 390.56L697.059 410.722C696.001 415.218 699.288 419.569 703.901 419.781L723.189 420.668C727.81 420.88 731.484 416.836 730.831 412.257L727.952 392.065C727.463 388.631 724.648 386.002 721.189 385.748Z" fill="#013236"/>
<path d="M255.504 896.76H185.353C177.783 896.76 170.939 895.36 164.821 892.56C158.703 889.76 153.415 885.872 148.956 880.894C144.601 875.917 141.23 870.162 138.845 863.629C136.46 856.992 135.268 849.889 135.268 842.319C135.268 834.853 136.46 827.854 138.845 821.321C141.23 814.684 144.601 808.877 148.956 803.9C153.415 798.819 158.703 794.878 164.821 792.078C170.939 789.279 177.783 787.879 185.353 787.879H255.504V803.433H185.353C178.198 803.433 172.028 805.196 166.843 808.722C161.762 812.144 157.822 816.81 155.022 822.721C152.222 828.631 150.822 835.164 150.822 842.319C150.822 849.474 152.222 856.007 155.022 861.918C157.822 867.725 161.762 872.391 166.843 875.917C172.028 879.442 178.198 881.205 185.353 881.205H255.504V896.76ZM357.31 826.765H298.981C295.766 826.765 293.018 827.905 290.737 830.187C288.456 832.468 287.315 835.216 287.315 838.431V896.76H271.761V838.431C271.761 833.35 272.953 828.787 275.338 824.743C277.827 820.595 281.145 817.328 285.293 814.943C289.441 812.455 294.003 811.21 298.981 811.21H357.31V826.765ZM467.323 838.431C467.323 843.408 466.079 847.971 463.59 852.119C461.205 856.266 457.939 859.585 453.791 862.073C449.747 864.458 445.184 865.651 440.103 865.651H380.53C382.707 870.214 385.922 873.947 390.173 876.85C394.529 879.754 399.402 881.205 404.795 881.205H455.658V896.76H404.795C398.884 896.76 393.336 895.671 388.151 893.493C383.07 891.212 378.56 888.101 374.619 884.161C370.782 880.22 367.775 875.709 365.597 870.628C363.42 865.444 362.331 859.896 362.331 853.985C362.331 848.074 363.42 842.578 365.597 837.497C367.775 832.313 370.782 827.75 374.619 823.809C378.56 819.869 383.07 816.81 388.151 814.632C393.336 812.351 398.884 811.21 404.795 811.21H440.103C445.184 811.21 449.747 812.455 453.791 814.943C457.939 817.328 461.205 820.595 463.59 824.743C466.079 828.787 467.323 833.35 467.323 838.431ZM440.103 850.096C443.318 850.096 446.066 848.956 448.347 846.674C450.628 844.393 451.769 841.645 451.769 838.431C451.769 835.216 450.628 832.468 448.347 830.187C446.066 827.905 443.318 826.765 440.103 826.765H404.795C400.232 826.765 396.032 827.802 392.196 829.876C388.463 831.95 385.352 834.749 382.863 838.275C380.374 841.801 378.819 845.741 378.197 850.096H440.103ZM609.224 853.985C609.224 859.896 608.135 865.444 605.957 870.628C603.78 875.709 600.721 880.22 596.78 884.161C592.943 888.101 588.433 891.212 583.248 893.493C578.167 895.671 572.671 896.76 566.76 896.76H523.674C517.764 896.76 512.216 895.671 507.031 893.493C501.95 891.212 497.439 888.101 493.499 884.161C489.662 880.22 486.655 875.709 484.477 870.628C482.299 865.444 481.211 859.896 481.211 853.985V811.21H496.765V853.985C496.765 858.962 497.958 863.525 500.343 867.673C502.831 871.717 506.098 874.984 510.142 877.472C514.186 879.857 518.697 881.102 523.674 881.205H537.518V811.21H552.917V881.205H566.76C571.737 881.102 576.248 879.857 580.292 877.472C584.44 874.984 587.707 871.717 590.092 867.673C592.477 863.525 593.669 858.962 593.669 853.985V811.21H609.224V853.985ZM649.699 791.767C649.699 794.982 648.559 797.73 646.277 800.011C643.996 802.293 641.248 803.433 638.033 803.433C634.819 803.433 632.071 802.293 629.789 800.011C627.508 797.73 626.368 794.982 626.368 791.767C626.368 788.553 627.508 785.805 629.789 783.523C632.071 781.242 634.819 780.102 638.033 780.102C641.248 780.102 643.996 781.242 646.277 783.523C648.559 785.805 649.699 788.553 649.699 791.767ZM645.811 896.76H630.256V811.21H645.811V896.76ZM683.785 896.76H668.231V811.21H726.56C732.471 811.21 737.967 812.351 743.048 814.632C748.232 816.81 752.743 819.869 756.58 823.809C760.52 827.75 763.58 832.313 765.757 837.497C767.935 842.578 769.024 848.074 769.024 853.985V896.76H753.469V853.985C753.469 849.008 752.277 844.497 749.892 840.453C747.507 836.305 744.24 832.987 740.092 830.498C736.048 828.009 731.537 826.765 726.56 826.765H683.785V896.76ZM885.402 900.648C885.402 905.626 884.158 910.188 881.669 914.336C879.284 918.484 876.018 921.751 871.87 924.136C867.722 926.624 863.159 927.869 858.182 927.869H795.964V912.314H858.182C861.397 912.314 864.145 911.174 866.426 908.892C868.707 906.611 869.848 903.863 869.848 900.648V826.765H827.073C822.096 826.765 817.585 828.009 813.541 830.498C809.497 832.987 806.23 836.305 803.742 840.453C801.357 844.497 800.164 849.008 800.164 853.985C800.164 858.962 801.357 863.525 803.742 867.673C806.23 871.717 809.497 874.984 813.541 877.472C817.585 879.857 822.096 881.102 827.073 881.205H862.071V896.76H827.073C821.162 896.76 815.615 895.671 810.43 893.493C805.349 891.212 800.838 888.101 796.898 884.161C793.061 880.22 790.054 875.709 787.876 870.628C785.698 865.444 784.61 859.896 784.61 853.985C784.61 848.074 785.698 842.578 787.876 837.497C790.054 832.313 793.061 827.75 796.898 823.809C800.838 819.869 805.349 816.81 810.43 814.632C815.615 812.351 821.162 811.21 827.073 811.21H885.402V900.648Z" fill="#013236"/>
</svg>
